<svg width="512" height="512" viewBox="0 0 512 512" fill="none" xmlns="http://www.w3.org/2000/svg">
            <rect width="512" height="512" rx="100" fill="#FFFFFF"/>
            <path d="M244.3 224.7v60.9h146.5c-5.8 38.3-43.7 112.5-146.5 112.5-88.2 0-160.2-73.1-160.2-163.1S156.1 71.9 244.3 71.9c50.3 0 84 21.4 103.3 39.9l48.2-46.5C364.7 36 309.8 12 244.3 12 115 12 10.3 116.7 10.3 246s104.7 234 234 234c135.2 0 224.7-95.1 224.7-228.6 0-15.4-1.6-27.1-4.7-38.7H244.3z" fill="#4285F4"/>
            <path d="M464.3 251.3c0-15.4-1.6-27.1-4.7-38.7H244.3v60.9h146.5c-6.7 34.3-27.6 63.3-58.1 82.8l48.7 37.8c28.5-26.3 83-75.1 83-142.8z" fill="#4285F4"/>
            <path d="M244.3 480c63.4 0 116.6-21 155.4-57l-48.7-37.8c-21 14.1-47.9 22.5-106.7 22.5-75.6 0-139.7-51-162.6-119.7H31.1v39.2C70.3 405.5 151.7 480 244.3 480z" fill="#34A853"/>
            <path d="M81.7 288c-5.8-17.5-9.1-36.2-9.1-55.5s3.3-38 9.1-55.5V137.8H31.1C11.3 177.2 0 210.3 0 246s11.3 68.8 31.1 108.2l50.6-39.2c0-.1 0-.1 0 0z" fill="#FBBC05"/>
            <path d="M244.3 92.5c41.3 0 69.1 17.8 84.9 33l48.2-46.5C346.4 50 299.7 30 244.3 30 151.7 30 70.3 104.5 31.1 183.8l50.6 39.2c22.9-68.7 87-130.5 162.6-130.5z" fill="#EA4335"/>
        </svg>