<svg width="512" height="512" viewBox="0 0 512 512" fill="none" xmlns="http://www.w3.org/2000/svg">
            <rect width="512" height="512" rx="100" fill="#25D366"/>
            <path d="M372.7 306.8c-6.3-3.2-37.4-18.4-43.2-20.6-5.8-2.1-10-3.2-14.3 3.2-4.2 6.3-16.3 20.6-20 24.8-3.7 4.2-7.4 4.7-13.7 1.6-6.3-3.2-26.7-9.8-50.9-31.4-18.8-16.8-31.5-37.5-35.2-43.8-3.7-6.3-.4-9.7 2.8-12.9 2.9-2.8 6.3-7.4 9.5-11.1 3.2-3.7 4.2-6.3 6.3-10.6 2.1-4.2 1.1-7.9-.5-11.1-1.6-3.2-14.3-34.3-19.5-47-5.2-12.3-10.4-10.6-14.3-10.9-3.7-.2-7.9-.2-12.1-.2-4.2 0-11.1 1.6-16.9 7.9-5.8 6.3-22.2 21.6-22.2 52.8 0 31.1 22.7 61.2 25.8 65.4 3.2 4.2 44.6 68.1 108.1 95.5 15.1 6.5 26.9 10.4 36.1 13.3 15.2 4.8 29 4.1 39.9 2.5 12.2-1.8 37.4-15.3 42.7-30.1 5.3-14.8 5.3-27.5 3.7-30.1-1.6-2.6-5.8-4.2-12.1-7.4z" fill="#FFFFFF"/>
        </svg>